<?xml version="1.0" encoding="UTF-8"?>
<svg width="40px" height="40px" viewBox="0 0 40 40" version="1.1" xmlns="http://www.w3.org/2000/svg" xmlns:xlink="http://www.w3.org/1999/xlink">
    <title>Rectangle 9</title>
    <g id="Website-v2" stroke="none" stroke-width="1" fill="none" fill-rule="evenodd">
        <g id="Full-Landing-Desktop-Copy-2" transform="translate(-337, -4530)" fill="color(display-p3 1.000 1.000 1.000)">
            <g id="Footer" transform="translate(305, 4498)">
                <path d="M44.819426,32 L59.180574,32 C63.6381677,32 65.2545989,32.4641281 66.8842285,33.3356635 C68.5138581,34.207199 69.792801,35.4861419 70.6643365,37.1157715 C71.5358719,38.7454011 72,40.3618323 72,44.819426 L72,59.180574 C72,63.6381677 71.5358719,65.2545989 70.6643365,66.8842285 C69.792801,68.5138581 68.5138581,69.792801 66.8842285,70.6643365 C65.2545989,71.5358719 63.6381677,72 59.180574,72 L44.819426,72 C40.3618323,72 38.7454011,71.5358719 37.1157715,70.6643365 C35.4861419,69.792801 34.207199,68.5138581 33.3356635,66.8842285 C32.4641281,65.2545989 32,63.6381677 32,59.180574 L32,44.819426 C32,40.3618323 32.4641281,38.7454011 33.3356635,37.1157715 C34.207199,35.4861419 35.4861419,34.207199 37.1157715,33.3356635 C38.7454011,32.4641281 40.3618323,32 44.819426,32 Z" id="Rectangle-9"></path>
            </g>
        </g>
    </g>
</svg>